<mxfile host="app.diagrams.net">
  <diagram name="ノートブックからジョブ化" id="nb-to-job">
    <mxGraphModel dx="1422" dy="794" grid="1" gridSize="10" guides="1" tooltips="1" connect="1" arrows="1" fold="1" page="1" pageScale="1" pageWidth="1400" pageHeight="800" background="#ffffff">
      <root>
        <mxCell id="0"/>
        <mxCell id="1" parent="0"/>

        <!-- Title -->
        <mxCell id="title" value="開発から本番運用まで数クリックでシームレス" style="text;html=1;strokeColor=none;fillColor=none;align=center;verticalAlign=middle;whiteSpace=wrap;rounded=0;fontSize=28;fontStyle=1;fontColor=#FF3621;" vertex="1" parent="1">
          <mxGeometry x="200" y="30" width="1000" height="50" as="geometry"/>
        </mxCell>

        <!-- Development Phase -->
        <mxCell id="dev-box" value="" style="rounded=1;whiteSpace=wrap;html=1;fillColor=#dae8fc;strokeColor=#6c8ebf;strokeWidth=3;opacity=30;" vertex="1" parent="1">
          <mxGeometry x="80" y="130" width="520" height="580" as="geometry"/>
        </mxCell>
        <mxCell id="dev-label" value="開発フェーズ" style="text;html=1;strokeColor=none;fillColor=none;align=left;verticalAlign=top;whiteSpace=wrap;rounded=0;fontSize=22;fontStyle=1;fontColor=#6c8ebf;spacingLeft=20;" vertex="1" parent="1">
          <mxGeometry x="100" y="150" width="200" height="30" as="geometry"/>
        </mxCell>

        <!-- Notebook Development -->
        <mxCell id="notebook-dev" value="" style="rounded=1;whiteSpace=wrap;html=1;fillColor=#ffffff;strokeColor=#6c8ebf;strokeWidth=2;" vertex="1" parent="1">
          <mxGeometry x="140" y="220" width="400" height="300" as="geometry"/>
        </mxCell>
        <mxCell id="nb-title" value="📓 Notebook開発" style="text;html=1;strokeColor=none;fillColor=none;align=center;verticalAlign=middle;whiteSpace=wrap;rounded=0;fontSize=18;fontStyle=1;" vertex="1" parent="1">
          <mxGeometry x="180" y="240" width="320" height="30" as="geometry"/>
        </mxCell>

        <mxCell id="nb-cell1" value="[1] データ読込・探索" style="rounded=0;whiteSpace=wrap;html=1;fillColor=#d5e8d4;strokeColor=#82b366;fontSize=14;fontStyle=1;align=left;spacingLeft=10;" vertex="1" parent="1">
          <mxGeometry x="160" y="290" width="360" height="40" as="geometry"/>
        </mxCell>
        <mxCell id="nb-cell2" value="[2] 前処理・特徴量作成" style="rounded=0;whiteSpace=wrap;html=1;fillColor=#d5e8d4;strokeColor=#82b366;fontSize=14;fontStyle=1;align=left;spacingLeft=10;" vertex="1" parent="1">
          <mxGeometry x="160" y="340" width="360" height="40" as="geometry"/>
        </mxCell>
        <mxCell id="nb-cell3" value="[3] モデル学習" style="rounded=0;whiteSpace=wrap;html=1;fillColor=#fff2cc;strokeColor=#d6b656;fontSize=14;fontStyle=1;align=left;spacingLeft=10;" vertex="1" parent="1">
          <mxGeometry x="160" y="390" width="360" height="40" as="geometry"/>
        </mxCell>
        <mxCell id="nb-cell4" value="[4] 評価・可視化" style="rounded=0;whiteSpace=wrap;html=1;fillColor=#dae8fc;strokeColor=#6c8ebf;fontSize=14;fontStyle=1;align=left;spacingLeft=10;" vertex="1" parent="1">
          <mxGeometry x="160" y="440" width="360" height="40" as="geometry"/>
        </mxCell>
        <mxCell id="nb-cell5" value="[5] モデル保存" style="rounded=0;whiteSpace=wrap;html=1;fillColor=#f8cecc;strokeColor=#b85450;fontSize=14;fontStyle=1;align=left;spacingLeft=10;" vertex="1" parent="1">
          <mxGeometry x="160" y="490" width="360" height="40" as="geometry"/>
        </mxCell>

        <mxCell id="dev-features" value="✓ セル単位で実行・デバッグ&lt;br&gt;✓ 即座に結果確認&lt;br&gt;✓ トライアンドエラー" style="text;html=1;strokeColor=none;fillColor=none;align=left;verticalAlign=middle;whiteSpace=wrap;rounded=0;fontSize=14;fontStyle=1;spacingLeft=20;" vertex="1" parent="1">
          <mxGeometry x="140" y="580" width="400" height="60" as="geometry"/>
        </mxCell>

        <!-- Production Phase -->
        <mxCell id="prod-box" value="" style="rounded=1;whiteSpace=wrap;html=1;fillColor=#d5e8d4;strokeColor=#82b366;strokeWidth=3;opacity=30;" vertex="1" parent="1">
          <mxGeometry x="800" y="130" width="520" height="580" as="geometry"/>
        </mxCell>
        <mxCell id="prod-label" value="本番運用フェーズ" style="text;html=1;strokeColor=none;fillColor=none;align=left;verticalAlign=top;whiteSpace=wrap;rounded=0;fontSize=22;fontStyle=1;fontColor=#82b366;spacingLeft=20;" vertex="1" parent="1">
          <mxGeometry x="820" y="150" width="240" height="30" as="geometry"/>
        </mxCell>

        <!-- Job -->
        <mxCell id="job-box" value="" style="rounded=1;whiteSpace=wrap;html=1;fillColor=#ffffff;strokeColor=#82b366;strokeWidth=2;" vertex="1" parent="1">
          <mxGeometry x="860" y="220" width="400" height="200" as="geometry"/>
        </mxCell>
        <mxCell id="job-title" value="⚙️ Job（自動実行）" style="text;html=1;strokeColor=none;fillColor=none;align=center;verticalAlign=middle;whiteSpace=wrap;rounded=0;fontSize=18;fontStyle=1;" vertex="1" parent="1">
          <mxGeometry x="900" y="240" width="320" height="30" as="geometry"/>
        </mxCell>

        <mxCell id="job-item1" value="🕒 スケジュール実行（毎日、毎週等）" style="text;html=1;strokeColor=none;fillColor=none;align=left;verticalAlign=middle;whiteSpace=wrap;rounded=0;fontSize=14;fontStyle=1;spacingLeft=10;" vertex="1" parent="1">
          <mxGeometry x="880" y="290" width="360" height="25" as="geometry"/>
        </mxCell>
        <mxCell id="job-item2" value="🔔 アラート通知（成功/失敗）" style="text;html=1;strokeColor=none;fillColor=none;align=left;verticalAlign=middle;whiteSpace=wrap;rounded=0;fontSize=14;fontStyle=1;spacingLeft=10;" vertex="1" parent="1">
          <mxGeometry x="880" y="325" width="360" height="25" as="geometry"/>
        </mxCell>
        <mxCell id="job-item3" value="📊 実行履歴・ログ管理" style="text;html=1;strokeColor=none;fillColor=none;align=left;verticalAlign=middle;whiteSpace=wrap;rounded=0;fontSize=14;fontStyle=1;spacingLeft=10;" vertex="1" parent="1">
          <mxGeometry x="880" y="360" width="360" height="25" as="geometry"/>
        </mxCell>
        <mxCell id="job-item4" value="🔄 再実行・リトライ機能" style="text;html=1;strokeColor=none;fillColor=none;align=left;verticalAlign=middle;whiteSpace=wrap;rounded=0;fontSize=14;fontStyle=1;spacingLeft=10;" vertex="1" parent="1">
          <mxGeometry x="880" y="395" width="360" height="25" as="geometry"/>
        </mxCell>

        <!-- Monitoring -->
        <mxCell id="monitoring-box" value="" style="rounded=1;whiteSpace=wrap;html=1;fillColor=#e1d5e7;strokeColor=#9673a6;strokeWidth=2;" vertex="1" parent="1">
          <mxGeometry x="860" y="460" width="400" height="80" as="geometry"/>
        </mxCell>
        <mxCell id="monitoring-title" value="📈 モニタリング" style="text;html=1;strokeColor=none;fillColor=none;align=center;verticalAlign=middle;whiteSpace=wrap;rounded=0;fontSize=16;fontStyle=1;" vertex="1" parent="1">
          <mxGeometry x="900" y="480" width="320" height="40" as="geometry"/>
        </mxCell>

        <mxCell id="prod-features" value="✓ ノートブックと同じコード&lt;br&gt;✓ 一元管理&lt;br&gt;✓ トラブルシューティング迅速" style="text;html=1;strokeColor=none;fillColor=none;align=left;verticalAlign=middle;whiteSpace=wrap;rounded=0;fontSize=14;fontStyle=1;spacingLeft=20;" vertex="1" parent="1">
          <mxGeometry x="860" y="580" width="400" height="60" as="geometry"/>
        </mxCell>

        <!-- Transition Arrow -->
        <mxCell id="transition-arrow" value="" style="shape=flexArrow;endArrow=classic;html=1;strokeWidth=5;fillColor=#ffcc99;strokeColor=#FF6600;width=60;endSize=10;" edge="1" parent="1">
          <mxGeometry width="50" height="50" relative="1" as="geometry">
            <mxPoint x="620" y="380" as="sourcePoint"/>
            <mxPoint x="780" y="380" as="targetPoint"/>
          </mxGeometry>
        </mxCell>
        <mxCell id="transition-label1" value="数クリックで" style="text;html=1;strokeColor=none;fillColor=none;align=center;verticalAlign=middle;whiteSpace=wrap;rounded=0;fontSize=18;fontStyle=1;fontColor=#FF6600;" vertex="1" parent="1">
          <mxGeometry x="640" y="320" width="120" height="30" as="geometry"/>
        </mxCell>
        <mxCell id="transition-label2" value="ジョブ化" style="text;html=1;strokeColor=none;fillColor=none;align=center;verticalAlign=middle;whiteSpace=wrap;rounded=0;fontSize=18;fontStyle=1;fontColor=#FF6600;" vertex="1" parent="1">
          <mxGeometry x="640" y="420" width="120" height="30" as="geometry"/>
        </mxCell>

      </root>
    </mxGraphModel>
  </diagram>
</mxfile>
